<svg xmlns="http://www.w3.org/2000/svg" xmlns:xlink="http://www.w3.org/1999/xlink" width="400" height="248" viewBox="0 0 400 248"><defs><clipPath id="b"><rect width="400" height="248"/></clipPath></defs><g id="a" clip-path="url(#b)"><path d="M0,0H400.035V248H0Z" fill="none"/><g transform="translate(46.365 33.921)"><path d="M1057.545,857.418H837.118c-18.314-20.6-28.964-46.905-26.553-72.572.807-8.6,2.949-17.315,8.334-24.65A33.994,33.994,0,0,1,843.55,746.42c10.566-.674,21.012,4.057,31.474,2.643,11.213-1.516,19.492-9.725,24.578-18.284s19.257-33.77,52.006-34.645c54.457-1.456,53.261,34.648,65.615,45.786,38.2,34.444,50.3,9.655,70.674,32.593C1107.237,796.283,1074.382,841.461,1057.545,857.418Z" transform="translate(-796.156 -672.372)" fill="#f5f5f5"/><path d="M948.747,2632.337c0,3.428-40.02,6.156-152.192,6.156s-156.084-1.922-156.084-5.35,49.741-6.178,161.912-6.178S948.747,2628.909,948.747,2632.337Z" transform="translate(-640.471 -2443.193)" fill="#bcbcbc"/><g transform="translate(247.736)"><path d="M3632.032,427.83l33.372,6.7a.417.417,0,0,1,.008.817l-32.562,7.208Z" transform="translate(-3631.795 -426.347)" fill="#ff3e3e"/><rect width="1.636" height="51.54" transform="translate(0)" fill="#5b5b86"/></g><path d="M2246.271,1724.2h36.1l1.387-89.242h-38.083Z" transform="translate(-2112.615 -1533.417)" fill="#e6e6e6"/><path d="M1684.483,2059.443h37.76l.9-58.942h-39.493Z" transform="translate(-1597.181 -1868.658)" fill="#fff"/><path d="M1129.447,2309.089h36.921l.419-36.378h-37.759Z" transform="translate(-1088.531 -2118.304)" fill="#e6e6e6"/><path d="M2849.468,1283.2h-40.407l1.11,118.4h39.436Z" transform="translate(-2629.304 -1210.812)" fill="#ffc627"/><path d="M3436.412,962.7h-41.377l2.04,145.058h38.585Z" transform="translate(-3166.706 -916.884)" fill="#e6e6e6"/><path d="M2849.468,1283.2h-40.407l1.11,118.4h39.436Z" transform="translate(-2629.304 -1210.812)" fill="#fff"/><g transform="translate(102.05 11.831)"><path d="M1903.42,1481.708l-3.29,2.736-.882-1.517s1.442-2,1.728-2.435a15.1,15.1,0,0,1,2.965-1.586Z" transform="translate(-1896.957 -1402.129)" fill="#ffc7c7"/><path d="M1874.663,1523.741a2.209,2.209,0,0,0,.233-1.328,15.182,15.182,0,0,1,.033-3.093.4.4,0,0,0-.124-.363,1.53,1.53,0,0,1-.391-1.827.177.177,0,0,0-.194-.266.881.881,0,0,0-.137.037c-.072.027-1.324.3-2.079.462a.5.5,0,0,0-.362.664l2.288,6.075S1874.509,1524,1874.663,1523.741Z" transform="translate(-1871.611 -1436.936)" fill="#29293d"/><path d="M1941.452,1031.761l9.953,4.405c-4.879,12.472-12.946,21.565-28.877,35.46l-2.445-1.215C1935.01,1050.426,1938.086,1043.347,1941.452,1031.761Z" transform="translate(-1916.066 -992.048)" fill="#5b5b86"/><path d="M2054.6,754.7l8.646-5,.548-1.535a3.969,3.969,0,0,0-2.353-5.054h0l-8.912,5.535c-3.744,1.872-2.223,6.956-2.223,6.956Z" transform="translate(-2035.209 -727.326)" fill="#ffc7c7"/><g transform="translate(18.652 13.569)"><path d="M2122.725,727.258a40.334,40.334,0,0,0,8.267-4.558l.733-.911a3.191,3.191,0,0,0-.96-4.8l-.178-.1a4.219,4.219,0,0,0-3.229-.365,25.624,25.624,0,0,0-9.282,4.862C2117.479,723.151,2120.879,726.888,2122.725,727.258Z" transform="translate(-2116.234 -716.361)" fill="#ffc627"/><path d="M2098.084,788.968a10.369,10.369,0,0,0,3.964,5.077l-1.723,1a7.95,7.95,0,0,1-3.7-5.169Z" transform="translate(-2096.629 -782.95)" fill="#ffa6a6"/><path d="M2106.01,770.528c.33,1.907,1.75,4.2,4.507,6.09.637.437-1.119,1.322-1.615,1.026-1.814-1.08-3.455-2.3-4.38-6.292C2104.391,770.783,2105.872,769.739,2106.01,770.528Z" transform="translate(-2103.86 -765.777)" fill="#fff"/></g><path d="M2179.519,982.536l-.01-1.218-6.43-.577-9.213.071-1.349,6.073,8.93,3.284,5.631-3.972Z" transform="translate(-2138.403 -945.257)" fill="#ffc627"/><path d="M2172.844,987.543l9.706-6.8a46.66,46.66,0,0,1,16.872,7.2c4.2,2.325.874,9-5.338,6.351l-.344-.42S2176.973,991.405,2172.844,987.543Z" transform="translate(-2147.875 -945.257)" fill="#5b5b86"/><g transform="translate(34.465 3.287)"><path d="M2425.46,716.3c4.492,1.536,13.2-12.221,11.5-13.557-1.39-1.09-8.887,5.548-11.556,8.242C2423.529,712.877,2422.771,715.379,2425.46,716.3Z" transform="translate(-2412.412 -693.479)" fill="#ffc7c7"/><path d="M2316.681,747.5l-7.326-6.132-1.56.011a3.8,3.8,0,0,0-3.77,3.773h0l7.9,6.194c2.911,2.751,6.982-.284,6.982-.284Z" transform="translate(-2302.648 -729.011)" fill="#ffc7c7"/><g transform="translate(0 9.214)"><path d="M2299.868,709.979c-2.347-2.971-7.479-6.3-7.479-6.3-1.872-.65-4.569.214-4.9,2.186l-.034.2a4.218,4.218,0,0,0,.746,3.164,25.628,25.628,0,0,0,7.705,7.1C2297.77,716.3,2300.142,711.842,2299.868,709.979Z" transform="translate(-2287.403 -703.47)" fill="#ffa000"/><path d="M2382.434,783.233a8.9,8.9,0,0,0,4.068-5.846c.181-.731,1.6.581,1.5,1.137-.369,2.03-.916,3.944-4.172,6.1C2383.366,784.925,2381.777,783.615,2382.434,783.233Z" transform="translate(-2374.413 -771.061)" fill="#fff"/></g><g transform="translate(12.904 0)"><path d="M10.242,0h1.223a0,0,0,0,1,0,0V16.227a0,0,0,0,1,0,0H5.985A5.985,5.985,0,0,1,0,10.242v0A10.242,10.242,0,0,1,10.242,0Z" transform="matrix(-0.831, 0.556, -0.556, -0.831, 18.549, 13.491)" fill="#dff4ff"/><path d="M2490.121,707.46c3.128-2.7,6.811-5.449,7.744-4.718.982.77-1.494,5.664-4.629,9.379Z" transform="translate(-2486.222 -693.479)" fill="#ffa6a6"/><path d="M2459.572,623.263l8.217-5.492a1.583,1.583,0,0,0,.436-2.2l-7.888-11.8-9.531,6.371Z" transform="translate(-2450.164 -602.824)" fill="#4a9dff"/></g><g transform="translate(23.838 4.713)"><path d="M2579.019,653.409a1.014,1.014,0,0,1-.1.052l-.1.047c-.032.015-.066.032-.1.046l-.1.039a6.265,6.265,0,0,1-.776.253c-.257.069-.511.124-.768.172-.127.024-.255.046-.383.066s-.253.038-.392.055a.46.46,0,0,1-.5-.331.439.439,0,0,1,.122-.438.11.11,0,0,1-.029-.053v0c-.09.016-.18.032-.279.047a.516.516,0,0,1-.571-.349.5.5,0,0,1,.334-.625l.012,0,.094-.029h0a.1.1,0,0,1,0-.061.461.461,0,0,1-.32-.255.441.441,0,0,1,.105-.514.123.123,0,0,1-.016-.024.11.11,0,0,1-.007-.072.4.4,0,0,1-.2-.16.384.384,0,0,1,.123-.535l.015-.009c.062-.038.134-.083.2-.127s.136-.09.2-.136c.133-.093.263-.19.388-.289s.242-.2.353-.309c.068-.067.132-.135.192-.2l.015,0a.709.709,0,0,1,.372.209l.128.192a.726.726,0,0,1,.06.224c.02-.015.041-.028.062-.041l2.043,3.057C2579.139,653.341,2579.08,653.374,2579.019,653.409Z" transform="translate(-2574.984 -649.62)" fill="#0476ff"/><g transform="translate(0.482)"><path d="M2591.077,676.233c-.024.022-.047.045-.071.069s-.06.047-.089.072a.446.446,0,0,1-.05.036l-.053.035-.054.036-.059.033a4.266,4.266,0,0,1-.508.249c-.179.076-.365.145-.554.209q-.142.048-.286.092c-.095.029-.195.057-.284.081l-.01,0a.377.377,0,0,0-.268.462.381.381,0,0,0,.415.277c.116-.014.219-.03.327-.047s.214-.036.321-.057c.213-.041.427-.089.641-.147a5.318,5.318,0,0,0,.649-.216l.082-.034.083-.039.083-.04a.773.773,0,0,0,.083-.044c.057-.033.113-.063.17-.1s.115-.083.173-.126a.543.543,0,0,0,.105-.764.553.553,0,0,0-.77-.106.468.468,0,0,0-.043.036Z" transform="translate(-2588.116 -673.827)" fill="#ffc7c7"/><path d="M2583.666,664.927q-.041.039-.081.081c-.031.028-.068.055-.1.084l-.026.021-.03.02-.06.041-.06.041-.066.039a5.088,5.088,0,0,1-.564.295c-.2.091-.405.176-.615.254-.1.039-.211.077-.317.113s-.216.072-.315.1l-.01,0a.42.42,0,0,0-.28.528.425.425,0,0,0,.475.292c.128-.021.243-.042.363-.066s.237-.049.356-.076c.237-.054.473-.115.711-.187a6.223,6.223,0,0,0,.715-.259l.091-.039.092-.045.091-.046.046-.023.046-.027c.062-.037.123-.072.185-.113s.127-.093.189-.14a.607.607,0,0,0,.112-.856.618.618,0,0,0-.862-.113.569.569,0,0,0-.05.042Z" transform="translate(-2581.096 -663.437)" fill="#ffc7c7"/><path d="M2584.073,655.044a2.009,2.009,0,0,1-.315.311,4.113,4.113,0,0,1-.416.294c-.147.094-.3.181-.46.265-.078.042-.159.083-.24.122s-.164.078-.239.111l-.012.006a.377.377,0,0,0-.19.5.382.382,0,0,0,.448.209c.1-.028.194-.055.289-.085s.188-.06.281-.093c.186-.066.371-.136.556-.218a5.2,5.2,0,0,0,.553-.278,3.048,3.048,0,0,0,.55-.4l.013-.012a.543.543,0,0,0,.021-.773.554.554,0,0,0-.779-.022A.633.633,0,0,0,2584.073,655.044Z" transform="translate(-2582.054 -654.358)" fill="#ffc7c7"/><path d="M2582.17,649.362a2.764,2.764,0,0,1-.243.273c-.093.089-.192.177-.3.261s-.213.166-.325.244c-.056.039-.113.078-.169.115s-.117.076-.168.108l-.013.008a.325.325,0,0,0-.1.451.331.331,0,0,0,.4.13c.078-.031.144-.059.214-.09s.138-.062.207-.095q.2-.1.406-.209c.134-.076.267-.157.4-.247a3.791,3.791,0,0,0,.389-.309l0,0a.471.471,0,0,0,.026-.669.48.48,0,0,0-.675-.027A.56.56,0,0,0,2582.17,649.362Z" transform="translate(-2580.802 -649.176)" fill="#ffc7c7"/><g transform="translate(0.752 2.159)"><path d="M2589.957,676.5a.085.085,0,0,0,.029,0,6.8,6.8,0,0,0,2.745-1.126.091.091,0,0,0,0-.129.093.093,0,0,0-.13,0,6.775,6.775,0,0,1-2.65,1.076.091.091,0,0,0,.007.18Z" transform="translate(-2589.877 -675.219)" fill="#ffa6a6"/></g><g transform="translate(0.41 1.193)"><path d="M2585.824,664.994a.09.09,0,0,0,.038,0,7.522,7.522,0,0,0,2.5-1.27.091.091,0,0,0-.13-.129,7.5,7.5,0,0,1-2.428,1.225.09.09,0,0,0-.061.114A.091.091,0,0,0,2585.824,664.994Z" transform="translate(-2585.743 -663.565)" fill="#ffa6a6"/></g><g transform="translate(0.215 0.426)"><path d="M2583.471,655.777a.1.1,0,0,0,.051-.008,8.146,8.146,0,0,0,1.953-1.3.092.092,0,0,0,0-.129.093.093,0,0,0-.131,0,8.1,8.1,0,0,1-1.9,1.266.091.091,0,0,0-.044.121A.092.092,0,0,0,2583.471,655.777Z" transform="translate(-2583.39 -654.31)" fill="#ffa6a6"/></g></g></g></g><path d="M2222.009,664.06a.936.936,0,0,0-.905-.146,2.585,2.585,0,0,1-1.111.169,3.16,3.16,0,0,1-2.255-2.774c-.171-.91-4.114-.645-3.781.22a12.975,12.975,0,0,1,.924,3.908,2.042,2.042,0,0,1-1.544,2.068l3.379,6.547,6.646-5.96a1.984,1.984,0,0,0-.092-3.032Z" transform="translate(-2185.01 -651.782)" fill="#ffc7c7"/><path d="M2177.957,984.573l.069-3.761,9.213-.071,6.43.577.009,1.218h0q.669.248,1.307.509C2192.23,985.179,2182.351,985.858,2177.957,984.573Z" transform="translate(-2152.564 -945.257)" fill="#444459"/><g transform="translate(25.457)"><path d="M2224.377,661.309a4.469,4.469,0,0,0,.412,1.224,2.294,2.294,0,0,1-2.312,1.332,4.583,4.583,0,0,1-1.216-.194,18.256,18.256,0,0,0-.665-2.142C2220.262,660.664,2224.205,660.4,2224.377,661.309Z" transform="translate(-2217.107 -651.782)" fill="#ffa6a6"/><path d="M2182.115,581.636c-1.423-2,.659-5.26,3.007-5.208,2.106.047,4.312,2.985,4.988,4.781.739,1.959.14,4.234-2.271,4.19C2185.542,585.357,2183.379,583.416,2182.115,581.636Z" transform="translate(-2181.407 -574.458)" fill="#ffc7c7"/><path d="M2179.034,559.615a5.383,5.383,0,0,0,2.165,2.422c.321.2.578.5.952.463.68-.075-.021-1.67-.458-2.061-.555-.5.579-.973.408-1.75-.107-.488-.582-1.092-.394-1.548.4-.969,3.114-1.669,1.672-3.075a5.582,5.582,0,0,0-1.869-1.259,1.253,1.253,0,0,0-1.167,0c-.549.4-.253.975-.265,1.5-.027,1.169-.742,1.7-1.142,2.69A3.479,3.479,0,0,0,2179.034,559.615Z" transform="translate(-2178.725 -552.661)" fill="#8383b7"/><path d="M2184.229,581.682a3.446,3.446,0,0,1-.1-2.608c.288-.7.735-1.174.98-1.806a3.105,3.105,0,0,1,2.092-.839,3.439,3.439,0,0,1,1.826.678c-.2.821-1.856,1.391-2.156,2.11-.189.455.291,1,.4,1.485C2187.445,581.478,2184.989,582.741,2184.229,581.682Z" transform="translate(-2183.488 -574.458)" fill="#ffa6a6"/><path d="M2180.428,562.235a5.416,5.416,0,0,0,2.193,2.423c.325.2.586.5.964.463.689-.075-.022-1.67-.465-2.062-.562-.5.586-.973.412-1.75-.109-.488-.589-1.093-.4-1.548.4-.969,3.151-1.668,1.69-3.074a5.655,5.655,0,0,0-1.892-1.26,1.283,1.283,0,0,0-1.182,0c-.555.4-.255.975-.267,1.5-.027,1.169-.75,1.7-1.155,2.689A3.446,3.446,0,0,0,2180.428,562.235Z" transform="translate(-2180 -555.064)" fill="#29293d"/><ellipse cx="0.774" cy="1.054" rx="0.774" ry="1.054" transform="translate(1.71 7.563) rotate(-47.375)" fill="#ffc7c7"/></g><path d="M2137.526,697.294l-8.535,4.606,3.789,5.853.783-1.645s1.636,1.98,1.681,7.8a61.933,61.933,0,0,1-3.076,7.119c1.526,2.781,15.15,2,18.112-.779,2.28-16.925-.726-24.044-5.236-24.742a6.017,6.017,0,0,0-2.406.44s1.231,2.739-1.162,3.412C2138.817,700.1,2137.526,697.294,2137.526,697.294Z" transform="translate(-2107.657 -683.64)" fill="#ffc627"/><g transform="translate(29.218 12.091)"><path d="M2224.1,720.4s-.005-.009-.007-.013l.013,0C2224.108,720.389,2224.107,720.395,2224.1,720.4Z" transform="translate(-2224.098 -718.572)" fill="#fff"/><path d="M2229.742,702.122a2.02,2.02,0,0,0,1.135-.884,2.3,2.3,0,0,0,.195-1.409,4.329,4.329,0,0,0-.134-.671,1.994,1.994,0,0,1-.149-.418s.09-.249.6-.2c0,.008,0,.016,0,.023a3.827,3.827,0,0,1,.093,2.859,2.509,2.509,0,0,1-1.691,1.339,3.9,3.9,0,0,1-1.024.15,3.62,3.62,0,0,1-2.19-.754,4.842,4.842,0,0,1-.846-.819,3.47,3.47,0,0,1-.629-1.007c.117-.307.578-.215.568-.233a3.491,3.491,0,0,0,3.893,2.081C2229.627,702.159,2229.685,702.142,2229.742,702.122Z" transform="translate(-2225.024 -698.531)" fill="#f4f1fe"/></g><path d="M2334.154,1357.7,2333,1361.3l1.288.748,2.4-3.018-.454-1.688Z" transform="translate(-2294.755 -1290.644)" fill="#ffc7c7"/><path d="M2329.856,1387.512a2.211,2.211,0,0,0-.768-1.108,15.218,15.218,0,0,1-2.153-2.221.4.4,0,0,0-.343-.172,1.53,1.53,0,0,1-1.564-1.024.176.176,0,0,0-.324-.053.821.821,0,0,0-.071.123c-.027.056-.489.769-.887,1.382a.92.92,0,0,0,.387,1.338l5.458,2.5S2329.932,1387.808,2329.856,1387.512Z" transform="translate(-2286.131 -1314.034)" fill="#29293d"/><path d="M2359.4,1066.27c7,4.6-9.942,25.5-9.942,25.5a23.235,23.235,0,0,0-2.538-1.336C2349.183,1083.082,2354.483,1063.039,2359.4,1066.27Z" transform="translate(-2307.519 -1023.376)" fill="#5b5b86"/><path d="M2048.891,828.379c-3.118,3.86,7.268,17.343,9.191,16.148,1.567-.975-2.262-10.715-3.951-14.3C2052.944,827.708,2050.758,826.068,2048.891,828.379Z" transform="translate(-2033.665 -804.509)" fill="#ffc7c7"/><rect width="7.303" height="4.072" rx="2.036" transform="matrix(0.799, -0.601, 0.601, 0.799, 22.452, 41.334)" fill="#29293d"/><g transform="translate(24.625 39.589)"><path d="M2189.665,1032.845c-.016-.033-.032-.067-.046-.1s-.045-.075-.066-.114a.584.584,0,0,0-.039-.058l-.042-.059c-.014-.019-.028-.04-.044-.06l-.049-.059a4.634,4.634,0,0,0-.439-.471c-.158-.153-.328-.3-.5-.445-.087-.072-.176-.143-.266-.213s-.183-.139-.268-.2l-.009-.006a.439.439,0,0,1-.1-.607.429.429,0,0,1,.55-.135c.116.061.219.119.326.181s.212.124.316.188c.21.129.417.265.62.414a5.778,5.778,0,0,1,.6.49l.073.068c.025.024.049.05.073.075l.072.076a.9.9,0,0,1,.072.081c.046.058.093.114.139.176s.089.135.132.2a.637.637,0,0,1-.192.87.615.615,0,0,1-.858-.19c-.011-.018-.022-.037-.032-.056Z" transform="translate(-2186.138 -1030.265)" fill="#ffc7c7"/><path d="M2178.361,1038.86c-.018-.039-.036-.079-.053-.12s-.05-.086-.074-.13l-.019-.033-.024-.034-.047-.068-.048-.069-.053-.068a5.8,5.8,0,0,0-.48-.543c-.174-.178-.359-.351-.55-.519q-.142-.125-.29-.248c-.1-.08-.2-.163-.292-.236l-.01-.007a.49.49,0,0,1-.086-.683.478.478,0,0,1,.62-.129c.127.073.24.142.358.215s.231.147.346.223c.23.152.455.312.677.484a7.084,7.084,0,0,1,.655.564l.08.078.078.085.078.086.039.043.038.048c.05.065.1.127.151.2s.1.15.144.227a.712.712,0,0,1-.223.972.687.687,0,0,1-.957-.219c-.013-.021-.025-.043-.036-.066Z" transform="translate(-2175.61 -1035.442)" fill="#ffc7c7"/><path d="M2174.755,1050.473a2.271,2.271,0,0,0-.209-.462,4.858,4.858,0,0,0-.322-.482c-.119-.16-.249-.315-.382-.469-.067-.077-.136-.152-.206-.227s-.143-.15-.208-.215l-.01-.011a.439.439,0,0,1,0-.616.425.425,0,0,1,.558-.049c.1.072.183.137.272.207s.174.14.259.212c.171.145.339.294.5.456a6.042,6.042,0,0,1,.475.52,3.48,3.48,0,0,1,.421.654l.009.018a.638.638,0,0,1-.286.846.615.615,0,0,1-.832-.285A.709.709,0,0,1,2174.755,1050.473Z" transform="translate(-2172.909 -1046.402)" fill="#ffc7c7"/><path d="M2169.646,1058.669a3.279,3.279,0,0,0-.149-.392c-.063-.133-.132-.266-.208-.4s-.16-.264-.246-.393c-.044-.065-.089-.129-.133-.192s-.094-.129-.135-.183l-.011-.013a.381.381,0,0,1,.07-.529.368.368,0,0,1,.479.018c.069.064.129.121.191.182s.121.121.181.184c.119.125.234.254.347.388s.219.276.323.425a4.249,4.249,0,0,1,.289.488l0,.006a.553.553,0,0,1-.239.736.533.533,0,0,1-.724-.237A.566.566,0,0,1,2169.646,1058.669Z" transform="translate(-2168.686 -1054.313)" fill="#ffc7c7"/></g><path d="M2117.034,901.408a113.09,113.09,0,0,0,7,12.146c-.205.978-2.632,2.3-3.616,2.1-1.9-2.747-5.019-6.259-5.019-6.259Z" transform="translate(-2095.187 -872.5)" fill="#ffc7c7"/></g></g></g></svg>