<svg width="600" height="144" viewBox="0 0 600 144" fill="none" xmlns="http://www.w3.org/2000/svg">
<path d="M91.2229 140.72V128.585L104.396 126.289C106.372 125.852 107.909 125.086 109.006 123.993C110.324 122.9 110.982 121.151 110.982 118.745V58.0688C110.982 44.9496 109.116 35.1101 105.384 28.5505C101.871 21.9908 94.9552 18.711 84.6364 18.711C76.5131 18.711 68.719 20.2416 61.2544 23.3028C54.0092 26.3639 47.4227 30.8463 41.4949 36.75L42.4829 26.5826C49.5084 16.9618 57.6318 10.2928 66.8529 6.57569C76.0739 2.85857 85.6244 1 95.5041 1C111.312 1 122.07 5.59175 127.778 14.7752C133.486 23.9587 136.34 36.8593 136.34 53.4771V118.745C136.34 123.119 138.536 125.633 142.927 126.289L157.746 128.585V140.72H91.2229ZM1.97595 140.72V128.585L16.4662 126.289C20.8572 125.633 23.0527 123.119 23.0527 118.745V29.2064C23.0527 25.052 20.967 22.6468 16.7955 21.9908L0 19.695V7.88761C6.58649 5.91972 13.5023 4.38914 20.7474 3.29587C28.2121 2.2026 35.1279 1.54664 41.4949 1.32799L46.1054 5.59174L48.74 29.2064V118.745C48.74 123.119 50.8257 125.633 54.9972 126.289L68.4995 128.585V140.72H1.97595Z" fill="#DFDFDF"/>
<path d="M276.73 74.4679C276.73 62.2232 275.633 51.7278 273.437 42.9817C271.242 34.0168 267.509 27.1292 262.24 22.3188C256.971 17.2898 249.726 14.7752 240.505 14.7752C228.868 14.7752 220.196 19.2576 214.488 28.2225C208.999 36.9687 206.255 51.1812 206.255 70.8601C206.255 83.1047 207.243 93.7095 209.219 102.674C211.414 111.42 215.147 118.308 220.416 123.337C225.905 128.148 233.259 130.553 242.481 130.553C254.117 130.553 262.679 126.18 268.168 117.433C273.876 108.469 276.73 94.1468 276.73 74.4679ZM177.933 73.484C177.933 56.6476 180.897 42.8723 186.825 32.1583C192.753 21.4442 200.656 13.5726 210.536 8.54358C220.635 3.51453 231.723 1 243.798 1C258.069 1 269.705 3.95184 278.706 9.85551C287.708 15.7592 294.294 24.068 298.466 34.7821C302.857 45.4962 305.052 57.9595 305.052 72.172C305.052 89.0084 302.088 102.674 296.16 113.17C290.233 123.665 282.329 131.427 272.449 136.456C262.569 141.485 251.482 144 239.187 144C224.917 144 213.28 141.048 204.279 135.145C195.277 129.241 188.581 121.041 184.19 110.546C180.019 100.05 177.933 87.6965 177.933 73.484Z" fill="#DFDFDF"/>
<path d="M430.497 19.695L409.749 16.0872V4.27982H461.782V16.0872L452.891 18.711C449.158 19.8043 446.743 21.7722 445.645 24.6147L403.163 142.688H388.343L430.497 19.695ZM397.893 142.688H380.769L334.663 24.9427C333.126 21.6628 330.821 19.5856 327.747 18.711L318.856 16.0872V4.27982H382.744V16.0872L361.997 19.695L402.175 131.865L397.893 142.688Z" fill="#DFDFDF"/>
<path d="M570.678 74.4679C570.678 62.2232 569.58 51.7278 567.385 42.9817C565.189 34.0168 561.457 27.1292 556.188 22.3188C550.919 17.2898 543.673 14.7752 534.452 14.7752C522.816 14.7752 514.144 19.2576 508.436 28.2225C502.947 36.9687 500.203 51.1812 500.203 70.8601C500.203 83.1047 501.191 93.7095 503.167 102.674C505.362 111.42 509.094 118.308 514.364 123.337C519.852 128.148 527.207 130.553 536.428 130.553C548.064 130.553 556.627 126.18 562.116 117.433C567.824 108.469 570.678 94.1468 570.678 74.4679ZM471.881 73.484C471.881 56.6476 474.845 42.8723 480.772 32.1583C486.7 21.4442 494.604 13.5726 504.484 8.54358C514.583 3.51453 525.67 1 537.746 1C552.016 1 563.652 3.95184 572.654 9.85551C581.656 15.7592 588.242 24.068 592.413 34.7821C596.804 45.4962 599 57.9595 599 72.172C599 89.0084 596.036 102.674 590.108 113.17C584.18 123.665 576.277 131.427 566.397 136.456C556.517 141.485 545.43 144 533.135 144C518.864 144 507.228 141.048 498.227 135.145C489.225 129.241 482.529 121.041 478.138 110.546C473.966 100.05 471.881 87.6965 471.881 73.484Z" fill="#DFDFDF"/>
</svg>
